<svg xmlns="http://www.w3.org/2000/svg" width="192.769" height="192.795" viewBox="0 0 192.769 192.795">
  <g id="user_2_" data-name="user(2)" transform="translate(0 0)">
    <path id="Caminho_19" data-name="Caminho 19" d="M96.4,0a96.4,96.4,0,0,0,0,192.8q4.356,0,8.676-.389c2.677-.24,5.33-.607,7.963-1.067l1.012-.179A96.4,96.4,0,0,0,96.4,0ZM88.653,186.028h-.228c-2.5-.221-4.98-.555-7.438-.984-.141-.025-.282-.041-.42-.067q-3.606-.645-7.137-1.586l-.57-.146c-2.3-.623-4.569-1.346-6.808-2.149-.232-.083-.466-.157-.7-.243-2.195-.806-4.351-1.71-6.474-2.688-.264-.118-.527-.231-.791-.356-2.082-.963-4.123-2.049-6.125-3.191-.282-.16-.568-.32-.85-.479q-2.956-1.725-5.785-3.686c-.286-.2-.574-.392-.858-.591-1.856-1.316-3.665-2.714-5.427-4.177l-.485-.424V138.17A35.388,35.388,0,0,1,73.9,102.824H118.89a35.388,35.388,0,0,1,35.346,35.346v27.095l-.427.356q-2.695,2.25-5.534,4.258c-.251.176-.505.344-.755.516q-2.867,1.991-5.874,3.75c-.251.146-.508.284-.758.428-2.032,1.156-4.1,2.248-6.205,3.232-.242.113-.485.218-.73.322-2.14.987-4.315,1.9-6.525,2.708-.22.082-.441.152-.643.229-2.25.806-4.531,1.536-6.841,2.162l-.554.138c-2.358.623-4.738,1.159-7.145,1.591-.138.025-.276.042-.414.064-2.462.43-4.945.764-7.446.987h-.227c-2.57.221-5.142.34-7.744.34s-5.195-.1-7.76-.318Zm72.009-26.721V138.17A41.821,41.821,0,0,0,118.89,96.4H73.9A41.821,41.821,0,0,0,32.132,138.17V159.3a89.971,89.971,0,1,1,128.53,0Zm0,0" fill="#fff"/>
    <path id="Caminho_20" data-name="Caminho 20" d="M192.133,64a32.133,32.133,0,1,0,32.133,32.133A32.132,32.132,0,0,0,192.133,64Zm0,57.839a25.706,25.706,0,1,1,25.706-25.706A25.705,25.705,0,0,1,192.133,121.839Zm0,0" transform="translate(-95.735 -38.294)" fill="#fff"/>
  </g>
</svg>
