<svg xmlns="http://www.w3.org/2000/svg" viewBox="0 0 108.21 95.42"><defs><style>.cls-1{fill:#fa751c;}.cls-2{fill:#8dc741;}.cls-3{fill:#eb660b;}.cls-4{fill:#b1da7f;}.cls-5{fill:#db5f09;}.cls-6{fill:#fefefd;}</style></defs><title>Ativo 8</title><g id="Camada_2" data-name="Camada 2"><g id="Camada_4" data-name="Camada 4"><path class="cls-1" d="M17,92.73a5.91,5.91,0,0,1,.35-2.61,40.86,40.86,0,0,1,3.73-8.29c1.27-2.29,2.63-4.52,4-6.74s2.81-4.35,4.26-6.49c1.3-1.91,2.61-3.81,4-5.69,1.73-2.41,3.49-4.8,5.25-7.19,1.46-2,2.95-3.93,4.46-5.88,1.66-2.13,3.31-4.27,5-6.37,1.84-2.28,3.67-4.56,5.65-6.72a13.77,13.77,0,0,1,7.92-4.39,13.93,13.93,0,0,1,7.86.86c.48.19.91.47,1.36.7a1.1,1.1,0,0,0,.46.16l0,0v0c.38,0,.49.51.88.49l.49.31a4.38,4.38,0,0,0,.83.71c0,.41.41.44.65.62a.55.55,0,0,0,.29.41.86.86,0,0,1,.4.7c-.25.33,0,.6.1.9a12.74,12.74,0,0,1,.2,3.2,14.11,14.11,0,0,1-.5,2.95c0,.12-.11.23.08.27h0c-.09.34-.5.49-.5.86a1.78,1.78,0,0,1-.23.74,19.51,19.51,0,0,1-.93,1.82c-.33.56-.75,1-1.1,1.59a10.43,10.43,0,0,1-2.44,2.19c-.88.73-1.81,1.4-2.69,2.12-.48.4-1,.72-1.48,1.11s-1.21,1-1.81,1.42l-2.76,2.16c-.71.55-1.41,1.11-2.11,1.67-.46-.25-.68-.74-1-1.11-.16-.18-.3-.3-.54-.21h0a.4.4,0,0,0-.11-.57l-.27-.23a18.09,18.09,0,0,0-3.42-2.81,1.25,1.25,0,0,0-1.18-.11,1.43,1.43,0,0,0-.24,2.47,18.62,18.62,0,0,1,3.88,3.53c.24.27.59.51.57.95-.2,0-.31.14-.45.25l-2.48,1.9-1.35,1c-.28.22-.29.42,0,.69.4.45.77.94,1.15,1.41.09.11.24.21.11.48-.51-.65-1-1.24-1.46-1.85-.19-.25-.38-.27-.59-.07a11.24,11.24,0,0,1-1,.79c-1.3,1-2.57,2-3.86,3-.58.45-1.12,1-1.75,1.35-.17.1-.46.23-.17.57,1,1.18,2,2.37,3,3.53a4.87,4.87,0,0,1,1.07,1.44c-.21,0-.31-.14-.42-.27L44.43,72.2c-.34-.41-.43-.43-.85-.11-.7.53-1.4,1.07-2.09,1.62-1.09.87-2.18,1.74-3.31,2.57-.36.26-.83.46-1,.92-.46-.38-.82-.86-1.25-1.27a12.86,12.86,0,0,0-2.4-1.8,1.37,1.37,0,0,0-2,.67,1.55,1.55,0,0,0,.71,1.8,4.68,4.68,0,0,1,1.4,1,.57.57,0,0,0,.58.18h0a.32.32,0,0,0,.12.47,1.18,1.18,0,0,1,.56.76,1.66,1.66,0,0,0-.91.56c-.79.72-1.67,1.33-2.52,2-1.24,1-2.41,2-3.73,2.85a.41.41,0,0,0-.2.37,1,1,0,0,1-.28-.14,11.56,11.56,0,0,0-1.64-1.32,1.47,1.47,0,0,0-2.08.24,1.44,1.44,0,0,0,.41,2,4.68,4.68,0,0,1,1.18,1,1.23,1.23,0,0,0-.23.11,31.54,31.54,0,0,1-2.72,2.17.52.52,0,0,0-.18.43h0a.48.48,0,0,0-.6.12c-.46.39-.92.77-1.39,1.14C19,91.24,18,92,17,92.73ZM62.74,42.25h0a.26.26,0,0,0-.11-.3c-.4-.3-.79-.62-1.2-.9a20.86,20.86,0,0,0-3.71-2,1.47,1.47,0,0,0-1.76.86,1.55,1.55,0,0,0,.58,1.64,22.4,22.4,0,0,1,2.18,1.12,20,20,0,0,1,3.14,2.25c.69.59,1.26,1.31,1.89,2a1.3,1.3,0,0,0,1.68.14,1.27,1.27,0,0,0,.45-1.74,9.56,9.56,0,0,0-2.16-2.37C63.43,42.6,63.19,42.25,62.74,42.25ZM38.51,61.92a.66.66,0,0,1-.34.5c-.21.17-.41.34-.63.49s-.23.27.05.38a8.2,8.2,0,0,1,1.69.94,16,16,0,0,1,3.54,3.28,1.38,1.38,0,0,0,1.56.38,1.41,1.41,0,0,0,.46-2.27,16.78,16.78,0,0,0-3.34-3.18,19.38,19.38,0,0,0-2.94-1.76,1.4,1.4,0,0,0-1.72.41,1.46,1.46,0,0,0,0,1.65c.17.24.3.31.55.08S38.1,62.24,38.51,61.92Z"/><path class="cls-2" d="M74.82,37.39a.86.86,0,0,0-.4-.7.55.55,0,0,1-.29-.41,2.66,2.66,0,0,0,1.41-1.71c.27-1.06-.61-2.73-2.06-2.5-.38,0-.38-.12-.32-.38s.13-.22.21-.33a3.21,3.21,0,0,1,1.37.33,2.57,2.57,0,0,1,1.38,1.83,3.41,3.41,0,0,1-.56,2.13c-.06.13-.25.29,0,.41s.3-.06.41-.19a3.26,3.26,0,0,0,.78-2.68,3.09,3.09,0,0,0-2.9-2.65c.22-.61.46-1.21.64-1.83a22.14,22.14,0,0,0,.79-6.53c0-2.07-.23-4.13-.1-6.19a5.09,5.09,0,0,1,1.06-3.31c1.21-1.35,3.35-1.91,4.79-.13a8.44,8.44,0,0,1,.89,1.26c.23.42.47.84.69,1.22.2-.38-.13-.73-.2-1.12a16.1,16.1,0,0,1-.17-6,4.77,4.77,0,0,1,1.41-2.79A4.42,4.42,0,0,1,86.67,4a4.15,4.15,0,0,1,4,3.27c.11.37.27.73.35,1.11a16,16,0,0,1,.4-3.66,5.11,5.11,0,0,1,1.77-3.07,3.65,3.65,0,0,1,3-.52,3.14,3.14,0,0,1,2.6,3.3c0,.4,0,.8-.08,1.2,0,.13-.07.27.08.36s.28,0,.38-.14A5.31,5.31,0,0,1,101,4.6a3.15,3.15,0,0,1,2.94,0c1,.64,1.29,1.58,1,3a3.54,3.54,0,0,0-4.19-.29,3.1,3.1,0,0,0-.88,4.21,2.83,2.83,0,0,0,3.42,1,2.4,2.4,0,0,0,1.43-1.87l.53.06a8.6,8.6,0,0,1-.61,1.35c-.06.1-.14.23,0,.31s.19,0,.27-.11a2,2,0,0,0,.9-1.49,3,3,0,0,1,2.46,3,3.86,3.86,0,0,1-.35,2.24,4,4,0,0,1-2,1.74,9.41,9.41,0,0,1-2.21.61c-.74.12-1.49.16-2.3.21a8.61,8.61,0,0,0,1.21.45,4.24,4.24,0,0,1,2.72,5.18,4.18,4.18,0,0,1-3.43,3.31,13.26,13.26,0,0,1-5.1.05A9.39,9.39,0,0,0,95,27.33c0-.09-.08-.1-.15-.1s0,0,0,.05l.2,0c.56.42,1.19.71,1.74,1.16a3.06,3.06,0,0,1,1.08,3.92,3.84,3.84,0,0,1-3,2.2,17.34,17.34,0,0,1-3.67.16,39.89,39.89,0,0,0-7.41.18,13.12,13.12,0,0,0-6.32,2.57c-.47.37-.87.82-1.37,1.16a6,6,0,0,1-.66-.85A.69.69,0,0,0,74.82,37.39Z"/><path class="cls-3" d="M74.82,37.39a.69.69,0,0,1,.55.43,6,6,0,0,0,.66.85,8.84,8.84,0,0,0,.7,1.37,12.74,12.74,0,0,1,1.14,3.47c-.11.3.12.62.06.88-.2,1,.27,1.86.1,2.8,0,.1,0,.16.14.19a14.18,14.18,0,0,1-1.57,5.81,13.78,13.78,0,0,1-3.16,4.08c-.1,0-.26-.08-.28,0-.12.37-.54.32-.73.57a4,4,0,0,0-.41.67c-.43-.14-.62.14-.81.43a.9.9,0,0,1-.37.38,3.37,3.37,0,0,0-1.49,1.15c-.2.14-.41.28-.41.57-.65,0-.79.07-1,.69,0,.16-.06.3-.27.27-.53-.1-.76.16-.83.65,0,.15-.1.39-.3.27-.43-.29-.44.07-.54.31s0,.32-.18.35-.27-.18-.31-.32-.2-.34-.38-.24-.05.32,0,.47.3.25.21.55c-.07-.17-.15-.28-.32-.24s-.19.17-.2.31l0,.57a0,0,0,0,1,0,.06,2.4,2.4,0,0,0-.94.51c-.11.12-.22.07-.35,0s-.38-.44-.67-.54a.25.25,0,0,0-.23-.29.33.33,0,0,0-.3-.35.34.34,0,0,0,.29.36.25.25,0,0,0,.24.29c0,.27.24.38.38.57s.28.41-.11.54a.61.61,0,0,0-.44.56,18.5,18.5,0,0,1-2.34,2c-.28.23-.58.42-.88.63-.21,0-.31.12-.45.22s-.23.25-.41.22c-.34,0-.44.15-.56.42a1.45,1.45,0,0,1-1,.84.59.59,0,0,0-.51.43,1.49,1.49,0,0,1-1,.84c-.46.15-.4.15-.67.59a1.45,1.45,0,0,1-1,.66c-.3,0-.46.07-.55.35s-.21.25-.3.38c-.32.47-1.05.42-1.27,1,0,0,0,0-.08,0-.41,0-.58.3-.78.56a.78.78,0,0,1-.24.24,6.19,6.19,0,0,0-1.06.76c-.46.43-.62.5-1.17.26h0a4.87,4.87,0,0,0-1.07-1.44c-1-1.16-2-2.35-3-3.53-.29-.34,0-.47.17-.57.63-.4,1.17-.9,1.75-1.35,1.29-1,2.56-2,3.86-3a11.24,11.24,0,0,0,1-.79c.21-.2.4-.18.59.07.46.61.95,1.2,1.46,1.85.13-.27,0-.37-.11-.48-.38-.47-.75-1-1.15-1.41-.25-.27-.24-.47,0-.69l1.35-1,2.48-1.9c.14-.11.25-.27.45-.25s.25.15.34.27c.35.5.72,1,1,1.52a1.36,1.36,0,1,0,2.38-1.31c-.41-.84-1-1.54-1.44-2.38.7-.56,1.4-1.12,2.11-1.67l2.76-2.16c.6-.47,1.22-.93,1.81-1.42s1-.71,1.48-1.11c.88-.72,1.81-1.39,2.69-2.12A10.43,10.43,0,0,0,72,49.72c.35-.54.77-1,1.1-1.59A19.51,19.51,0,0,0,74,46.31a1.78,1.78,0,0,0,.23-.74c0-.37.41-.52.5-.86a3.92,3.92,0,0,0,1.53-1.14s0-.09,0-.13c.54,0,.74-.54,1.11-.81a1.8,1.8,0,0,0-1.11.81,5,5,0,0,0-1.56,1.27c-.19,0-.11-.15-.08-.27a14.11,14.11,0,0,0,.5-2.95,12.74,12.74,0,0,0-.2-3.2C74.85,38,74.57,37.72,74.82,37.39ZM73.35,56.56a.63.63,0,0,0-.56-.63.87.87,0,0,0-.79.57.82.82,0,0,0,.53.74A.84.84,0,0,0,73.35,56.56Zm-4.4.77a4.65,4.65,0,0,0-1.73-2Z"/><path class="cls-3" d="M17,92.73c1-.75,1.95-1.49,2.92-2.25.47-.37.93-.75,1.39-1.14a.48.48,0,0,1,.6-.12.39.39,0,0,0,.32.39,1.19,1.19,0,0,0,.63.77.38.38,0,0,0,.32.39.37.37,0,0,0,.32.39,1.27,1.27,0,0,0,.67.81,1.49,1.49,0,0,0-.67-.81.38.38,0,0,0-.32-.39.37.37,0,0,0-.31-.39,1.22,1.22,0,0,0-.64-.78.38.38,0,0,0-.32-.39.52.52,0,0,1,.18-.43,31.54,31.54,0,0,0,2.72-2.17,1.23,1.23,0,0,1,.23-.11,1.66,1.66,0,0,1,.37.23c.45.58.87,1.19,1.34,1.76a1.21,1.21,0,0,0,1.47.39,1.35,1.35,0,0,0,.88-1.06c.13-.64-.28-1.08-.58-1.54a13.17,13.17,0,0,1-1.07-1.5.41.41,0,0,1,.2-.37c1.32-.86,2.49-1.9,3.73-2.85.85-.65,1.73-1.26,2.52-2a1.66,1.66,0,0,1,.91-.56s.09,0,.11,0a1.45,1.45,0,0,0,2,.34,1.53,1.53,0,0,0,.24-2,2,2,0,0,1-.07-.26c.2-.46.67-.66,1-.92,1.13-.83,2.22-1.7,3.31-2.57.69-.55,1.39-1.09,2.09-1.62.42-.32.51-.3.85.11L48,76.56c.11.13.21.28.42.27h0c0,.18.27.34.06.52s-.66.54-1,.78-1,.45-1.27,1.05c0,.1-.15.06-.23.09a3.2,3.2,0,0,0-.87.62c-.29.26-.52.54-1,.43h0a.67.67,0,0,0-.64-.7.65.65,0,0,0-.74.49.62.62,0,0,0,.37.8c.15.08.29.14.17.31s-.18.29-.38.1-.28-.11-.3.08-.18.27-.39.16a.22.22,0,0,0-.31.06c0,.23.55.29.25.65-1.94,1.41-3.92,2.76-5.9,4.1-1.81,1.21-3.63,2.39-5.49,3.52A36.4,36.4,0,0,1,27.07,92a.76.76,0,0,0-.82.45.08.08,0,0,1-.08,0,3.52,3.52,0,0,0-1.87.84.07.07,0,0,0,0,0,12.63,12.63,0,0,1-5.13,1.46,1.87,1.87,0,0,1-1.94-1A1.74,1.74,0,0,1,17,92.73Z"/><path class="cls-2" d="M104.65,10.64a2.4,2.4,0,0,1-1.43,1.87,2.83,2.83,0,0,1-3.42-1,3.1,3.1,0,0,1,.88-4.21,3.54,3.54,0,0,1,4.19.29,1.44,1.44,0,0,1-.29.87l-.16-.13a2.61,2.61,0,0,0-2.58-.61,2.25,2.25,0,0,0-1.52,2.73A2,2,0,0,0,101.84,12a1.69,1.69,0,0,0,1.86-.78c.09-.15.21-.3,0-.48A2.17,2.17,0,0,1,104.65,10.64Z"/><path class="cls-1" d="M44.15,80.32c.44.11.67-.17,1-.43a3.2,3.2,0,0,1,.87-.62c.08,0,.19,0,.23-.09.22-.6.82-.73,1.27-1.05s.68-.51,1-.78-.11-.34-.06-.52c.55.24.71.17,1.17-.26a6.19,6.19,0,0,1,1.06-.76.78.78,0,0,0,.24-.24c.2-.26.37-.57.78-.56,0,0,.07,0,.08,0,.22-.59,1-.54,1.27-1,.09-.13.25-.22.3-.38s.25-.32.55-.35a1.45,1.45,0,0,0,1-.66c.27-.44.21-.44.67-.59a1.49,1.49,0,0,0,1-.84.59.59,0,0,1,.51-.43,1.45,1.45,0,0,0,1-.84c.12-.27.22-.47.56-.42.18,0,.28-.13.41-.22s.24-.27.45-.22c-.19.46-.66.64-1,.93-1.51,1.28-3.09,2.46-4.62,3.71S51,75.83,49.52,76.94c-.76.58-1.55,1.12-2.28,1.75-.41.35-.9.62-1.34.93l-3.39,2.45c-.1.08-.18.21-.33.2.3-.36-.2-.42-.25-.65a.22.22,0,0,1,.31-.06c.21.11.35.17.39-.16s.2-.18.3-.08.31,0,.38-.1,0-.23-.17-.31a.62.62,0,0,1-.37-.8.65.65,0,0,1,.74-.49.67.67,0,0,1,.64.7l-.17,0s.05-.11-.06-.1l.06.1-.12.46C44.1,80.58,44.1,80.58,44.15,80.32ZM43.21,80c-.42.17-.27.4-.07.63l0,0,0,0c0-.2-.08-.42.06-.61l0,0Zm.49.61a.31.31,0,0,0-.12-.44.18.18,0,0,0-.24,0,.15.15,0,0,0,0,.2s.07.07.07.07C43.71,80.06,43.54,80.55,43.7,80.56Zm-.1-.69-.06-.05s0,0-.08,0l.07,0Z"/><path class="cls-2" d="M73.16,31.69c-.06.26-.06.43.32.38,1.45-.23,2.33,1.44,2.06,2.5a2.66,2.66,0,0,1-1.41,1.71c-.24-.18-.62-.21-.65-.62a4,4,0,0,0,.46-.13A1.49,1.49,0,0,0,74.82,34a1.22,1.22,0,0,0-.9-1.06,1,1,0,0,0-1,.27.91.91,0,0,0-.2,1.06.54.54,0,0,0,.55.35c.29,0,.2-.24.24-.4s.16-.43.38-.41.32.27.32.51a.73.73,0,0,1-.14.36c-.36.55-.86.44-1.37.32l-.49-.31c0-.4-.3-.71-.33-1.1Z"/><path class="cls-2" d="M103.74,10.71c.17.18.05.33,0,.48a1.69,1.69,0,0,1-1.86.78,2,2,0,0,1-1.52-1.48,2.25,2.25,0,0,1,1.52-2.73,2.61,2.61,0,0,1,2.58.61l.16.13,0,.16c-.08.05-.15.1-.13.21l0,.14a.56.56,0,0,1-.41-.2A1.71,1.71,0,0,0,102,8.44,1.58,1.58,0,0,0,101,10a1.46,1.46,0,0,0,.76,1.21A1.1,1.1,0,0,0,103,11a.64.64,0,0,1,.55-.28Z"/><path class="cls-2" d="M73.81,30.54a3.09,3.09,0,0,1,2.9,2.65,3.26,3.26,0,0,1-.78,2.68c-.11.13-.26.28-.41.19s0-.28,0-.41a3.41,3.41,0,0,0,.56-2.13,2.57,2.57,0,0,0-1.38-1.83,3.21,3.21,0,0,0-1.37-.33C73.42,31,73.69,30.82,73.81,30.54Z"/><path class="cls-2" d="M103.58,10.72A.64.64,0,0,0,103,11a1.1,1.1,0,0,1-1.3.22A1.46,1.46,0,0,1,101,10,1.58,1.58,0,0,1,102,8.44a1.71,1.71,0,0,1,1.93.37.56.56,0,0,0,.41.2,1.37,1.37,0,0,1-.57.75c-.11,0-.14-.14-.21-.21a1.09,1.09,0,0,0-1.42-.29,1,1,0,0,0-.45,1.17.52.52,0,0,0,.55.46c.29,0,.38-.21.31-.5a.32.32,0,0,1,.18-.33c.14-.09.26,0,.36.09s.12.17.23.19C103.26,10.56,103.48,10.6,103.58,10.72Z"/><path class="cls-1" d="M64.85,64.7l0-.57c0-.14,0-.26.2-.31s.25.07.32.24c.09-.3-.15-.39-.21-.55s-.23-.35,0-.47.31,0,.38.24.1.34.31.32.13-.23.18-.35.11-.6.54-.31c.2.12.28-.12.3-.27.07-.49.3-.75.83-.65.21,0,.23-.11.27-.27.16-.62.3-.72,1-.69l.21,0Q67.07,63,64.85,64.7Z"/><path class="cls-2" d="M103.35,10.34c-.11,0-.15-.12-.23-.19s-.22-.18-.36-.09a.32.32,0,0,0-.18.33c.07.29,0,.49-.31.5a.52.52,0,0,1-.55-.46,1,1,0,0,1,.45-1.17,1.09,1.09,0,0,1,1.42.29c.07.07.1.17.21.21,0,.2-.22.32-.33.49,0,0,0,0,0,0Z"/><path class="cls-1" d="M69.35,60.49a3.37,3.37,0,0,1,1.49-1.15.9.9,0,0,0,.37-.38c.19-.29.38-.57.81-.43a.22.22,0,0,0,0,.08c-.87.77-1.72,1.56-2.63,2.28C69.4,60.76,69.48,60.61,69.35,60.49Z"/><path class="cls-1" d="M62.86,64.73c.29.1.41.4.67.54s.24.12.35,0a2.4,2.4,0,0,1,.94-.51c-.43.47-1,.79-1.44,1.21-.1.09-.25.13-.3.24s-.2.25-.39.2a.61.61,0,0,1,.44-.56c.39-.13.27-.32.11-.54s-.38-.3-.38-.57Z"/><path class="cls-2" d="M105.72,10.76a2,2,0,0,1-.9,1.49c-.08.06-.16.19-.27.11s0-.21,0-.31a8.6,8.6,0,0,0,.61-1.35Z"/><path class="cls-1" d="M78.17,47.38c-.1,0-.16-.09-.14-.19.17-.94-.3-1.85-.1-2.8.06-.26-.17-.58-.06-.88A11,11,0,0,1,78.17,47.38Z"/><path class="cls-4" d="M72,58.61a.22.22,0,0,1,0-.08,4,4,0,0,1,.41-.67c.19-.25.61-.2.73-.57,0-.1.18,0,.28,0A6.88,6.88,0,0,1,72,58.61Z"/><path class="cls-2" d="M71.83,33.54c0,.39.31.7.33,1.1-.39,0-.5-.48-.88-.49v0l0,0L71.4,34a.08.08,0,0,0,0,0l.06,0a.1.1,0,0,0,0,0l0,0,.07-.07h0l.07-.07Z"/><path class="cls-1" d="M24.29,93.31a.07.07,0,0,1,0,0,3.52,3.52,0,0,1,1.87-.84A8.74,8.74,0,0,1,24.29,93.31Z"/><path class="cls-5" d="M69.35,60.49c.13.12.05.27.05.4a.34.34,0,0,1-.25.2l-.21,0C68.94,60.77,69.15,60.63,69.35,60.49Z"/><path class="cls-1" d="M26.25,92.41a.76.76,0,0,1,.82-.45A2.52,2.52,0,0,1,26.25,92.41Z"/><path class="cls-4" d="M104.42,8.87c0-.11,0-.16.13-.21C104.58,8.78,104.51,8.83,104.42,8.87Z"/><path class="cls-4" d="M103.43,10.28s0,0,0,0l0,0Z"/><path class="cls-4" d="M71.54,33.82a.1.1,0,0,1,0,0S71.49,33.8,71.54,33.82Z"/><path class="cls-4" d="M71.64,33.72l-.07.07C71.56,33.73,71.58,33.71,71.64,33.72Z"/><path class="cls-4" d="M71.73,33.64l-.07.07C71.66,33.66,71.68,33.64,71.73,33.64Z"/><path class="cls-4" d="M71.44,33.91a.08.08,0,0,1,0,0C71.38,33.89,71.39,33.88,71.44,33.91Z"/><path class="cls-5" d="M58.66,60.39c.4.84,1,1.54,1.44,2.38a1.36,1.36,0,1,1-2.38,1.31c-.33-.52-.7-1-1-1.52-.09-.12-.17-.26-.34-.27,0-.44-.33-.68-.57-.95a18.62,18.62,0,0,0-3.88-3.53,1.43,1.43,0,0,1,.24-2.47,1.25,1.25,0,0,1,1.18.11,18.09,18.09,0,0,1,3.42,2.81l.27.23a.4.4,0,0,1,.11.57.27.27,0,0,0-.29.24l-.1.08c-.06,0-.14,0-.14.1s0,0,0,0,.11-.06.13-.12l.09-.08a.26.26,0,0,0,.3-.24c.24-.09.38,0,.54.21C58,59.65,58.2,60.14,58.66,60.39Z"/><path class="cls-5" d="M62.74,42.25c.45,0,.69.35,1,.62a9.56,9.56,0,0,1,2.16,2.37A1.27,1.27,0,0,1,65.42,47a1.3,1.3,0,0,1-1.68-.14c-.63-.65-1.2-1.37-1.89-2a20,20,0,0,0-3.14-2.25,22.4,22.4,0,0,0-2.18-1.12A1.55,1.55,0,0,1,56,39.87,1.47,1.47,0,0,1,57.71,39a20.86,20.86,0,0,1,3.71,2c.41.28.8.6,1.2.9a.26.26,0,0,1,.11.3c-.06,0-.14,0-.14.1s0,0,0,0S62.72,42.31,62.74,42.25Zm-.78.63a.38.38,0,0,0,.39-.32l0,0,0,0a.37.37,0,0,0-.39.32c-.07,0-.15,0-.15.09a0,0,0,0,0,0,0C61.93,43,61.94,43,62,42.88Zm-.39.31a.39.39,0,0,0-.39.32c-.07,0-.14,0-.15.1a0,0,0,0,0,0,0c.1,0,.1-.06.12-.12a.39.39,0,0,0,.39-.32l.12,0,0,0Zm-.66.61a0,0,0,0,0,0,0h0l0,0Z"/><path class="cls-5" d="M38.51,61.92c-.41.32-.79.59-1.14.9s-.38.16-.55-.08a1.46,1.46,0,0,1,0-1.65,1.4,1.4,0,0,1,1.72-.41,19.38,19.38,0,0,1,2.94,1.76,16.78,16.78,0,0,1,3.34,3.18,1.41,1.41,0,0,1-.46,2.27,1.38,1.38,0,0,1-1.56-.38,16,16,0,0,0-3.54-3.28,8.2,8.2,0,0,0-1.69-.94c-.28-.11-.27-.21-.05-.38s.42-.32.63-.49A.66.66,0,0,0,38.51,61.92Z"/><path class="cls-5" d="M37.15,77.2a2,2,0,0,0,.07.26,1.53,1.53,0,0,1-.24,2,1.45,1.45,0,0,1-2-.34s-.07,0-.11,0a1.18,1.18,0,0,0-.56-.76.32.32,0,0,1-.12-.47l0,0,0,0a.57.57,0,0,1-.58-.18,4.68,4.68,0,0,0-1.4-1,1.55,1.55,0,0,1-.71-1.8,1.37,1.37,0,0,1,2-.67,12.86,12.86,0,0,1,2.4,1.8C36.33,76.34,36.69,76.82,37.15,77.2ZM36.41,77a.69.69,0,0,0-.48-.56A1,1,0,0,0,36.41,77Z"/><path class="cls-5" d="M27.47,84.78a13.17,13.17,0,0,0,1.07,1.5c.3.46.71.9.58,1.54a1.35,1.35,0,0,1-.88,1.06,1.21,1.21,0,0,1-1.47-.39c-.47-.57-.89-1.18-1.34-1.76a1.66,1.66,0,0,0-.37-.23,4.68,4.68,0,0,0-1.18-1,1.44,1.44,0,0,1-.41-2,1.47,1.47,0,0,1,2.08-.24,11.56,11.56,0,0,1,1.64,1.32A1,1,0,0,0,27.47,84.78Zm-2.36.39c-.07,0-.14,0-.15.09a0,0,0,0,0,0,0c.09,0,.1-.06.12-.12l.12,0,0,0Zm.58-.48c.07,0,.14,0,.15-.09a0,0,0,0,0,0,0c-.09,0-.1.06-.12.12l-.08.09,0,0Zm.81-.52c-.26,0-.41,0-.5.26C26.21,84.43,26.31,84.32,26.5,84.17Zm-1.94,1.41.07,0s0-.05.05-.07-.06,0-.07,0S24.58,85.56,24.56,85.58Zm.89-.62s0-.06,0-.07,0,0-.07,0l0,.09Z"/><path class="cls-2" d="M72.65,35c.51.12,1,.23,1.37-.32a.73.73,0,0,0,.14-.36c0-.24-.07-.48-.32-.51s-.32.2-.38.41.05.39-.24.4a.54.54,0,0,1-.55-.35.91.91,0,0,1,.2-1.06,1,1,0,0,1,1-.27,1.22,1.22,0,0,1,.9,1.06,1.49,1.49,0,0,1-.88,1.58,4,4,0,0,1-.46.13A4.38,4.38,0,0,1,72.65,35Z"/><path class="cls-6" d="M95,27.32l-.2,0s0-.05,0-.05.14,0,.15.1Z"/><path class="cls-1" d="M73.35,56.56a.84.84,0,0,1-.82.68A.82.82,0,0,1,72,56.5a.87.87,0,0,1,.79-.57A.63.63,0,0,1,73.35,56.56Zm-1.08-.19c-.1.32,0,.57.32.66s.33-.11.42-.26,0-.25-.14-.34a.19.19,0,0,0-.28,0c-.16.17.06.25.1.36s0,0,0,.08C72.35,56.85,72.37,56.58,72.27,56.37Z"/><path class="cls-1" d="M69,57.33l-1.73-2A4.65,4.65,0,0,1,69,57.33Z"/><path class="cls-1" d="M76.26,43.44s0,.11,0,.13a3.92,3.92,0,0,1-1.53,1.14h0a5,5,0,0,1,1.56-1.27Z"/><path class="cls-1" d="M76.26,43.44a1.8,1.8,0,0,1,1.11-.81c-.37.27-.57.77-1.11.81Z"/><path class="cls-1" d="M62.62,64.45a.34.34,0,0,1-.29-.36.33.33,0,0,1,.3.35Z"/><path class="cls-1" d="M62.63,64.44a.25.25,0,0,1,.23.29h0a.25.25,0,0,1-.24-.29Z"/><path class="cls-1" d="M23.52,91.16a1.49,1.49,0,0,1,.67.81,1.27,1.27,0,0,1-.67-.81Z"/><path class="cls-1" d="M22.88,90.38a1.19,1.19,0,0,1-.63-.77h0a1.22,1.22,0,0,1,.64.78Z"/><path class="cls-1" d="M23.52,91.16a.37.37,0,0,1-.32-.39h0a.38.38,0,0,1,.32.39Z"/><path class="cls-1" d="M22.89,90.38a.37.37,0,0,1,.31.39h0a.38.38,0,0,1-.32-.39Z"/><path class="cls-1" d="M22.25,89.61a.39.39,0,0,1-.32-.39h0a.38.38,0,0,1,.32.39Z"/><path class="cls-5" d="M43.7,80.56c-.16,0,0-.5-.3-.14,0,0-.06,0-.07-.07a.15.15,0,0,1,0-.2.18.18,0,0,1,.24,0A.31.31,0,0,1,43.7,80.56Z"/><path class="cls-5" d="M43.14,80.58c-.2-.23-.35-.46.07-.63h0c-.14.19-.06.41-.06.61Z"/><path class="cls-3" d="M44.15,80.32c0,.26,0,.26-.29.44L44,80.3h0l.17,0Z"/><path class="cls-5" d="M43.6,79.87l-.07,0-.07,0s0,0,.08,0Z"/><path class="cls-3" d="M44,80.3l-.06-.1c.11,0,0,.07.06.1Z"/><path class="cls-5" d="M43.15,80.57l0,0,0,0Z"/><path class="cls-5" d="M43.21,80l0,0,0,0Z"/><path class="cls-1" d="M56.81,59.3a.27.27,0,0,1,.29-.24h0a.26.26,0,0,1-.3.24Z"/><path class="cls-1" d="M56.72,59.39c0,.06,0,.13-.13.12s0,0,0,0,.08-.09.14-.1Z"/><path class="cls-1" d="M56.71,59.38l.1-.08h0l-.09.08Z"/><path class="cls-1" d="M61.18,43.51a.39.39,0,0,1,.39-.32h0a.39.39,0,0,1-.39.32Z"/><path class="cls-1" d="M62.35,42.56a.38.38,0,0,1-.39.32h0a.37.37,0,0,1,.39-.32Z"/><path class="cls-1" d="M62,42.88c0,.07,0,.14-.12.12a0,0,0,0,1,0,0c0-.09.08-.09.15-.09Z"/><path class="cls-1" d="M61.18,43.52c0,.06,0,.13-.12.12a0,0,0,0,1,0,0c0-.1.08-.09.15-.1Z"/><path class="cls-1" d="M62.74,42.25c0,.06,0,.14-.13.12s0,0,0,0,.08-.09.14-.1Z"/><path class="cls-1" d="M60.91,43.8l0,0,0,0h0A0,0,0,0,1,60.91,43.8Z"/><path class="cls-1" d="M61.57,43.19l.1,0,0,0-.12,0Z"/><path class="cls-1" d="M62.35,42.56l0,0,0,0Z"/><path class="cls-1" d="M36.41,77a1,1,0,0,1-.48-.56A.69.69,0,0,1,36.41,77Z"/><path class="cls-1" d="M34.15,77.79l0,0,0,0Z"/><path class="cls-1" d="M26.5,84.17c-.19.15-.29.26-.5.26C26.09,84.19,26.24,84.18,26.5,84.17Z"/><path class="cls-1" d="M24.56,85.58s0-.06.05-.06,0,0,.07,0,0,.06-.05.07Z"/><path class="cls-1" d="M25.45,85l-.06,0,0-.09s.06,0,.07,0S25.45,84.93,25.45,85Z"/><path class="cls-1" d="M25.69,84.69c0-.06,0-.14.12-.12a0,0,0,0,1,0,0c0,.09-.08.09-.15.09Z"/><path class="cls-1" d="M25.11,85.17c0,.06,0,.13-.12.12a0,0,0,0,1,0,0c0-.1.08-.09.15-.09Z"/><path class="cls-1" d="M25.11,85.17l.1-.06,0,0-.12,0Z"/><path class="cls-1" d="M25.69,84.69l0,.11,0,0,.08-.09Z"/><path class="cls-5" d="M72.27,56.37c.1.21.08.48.38.53,0,0,0-.06,0-.08s-.26-.19-.1-.36a.19.19,0,0,1,.28,0c.1.09.21.2.14.34s-.21.31-.42.26S72.17,56.69,72.27,56.37Z"/><path class="cls-1" d="M87.22,95.38a5.82,5.82,0,0,1-2.58-.49,40.89,40.89,0,0,1-8.07-4.18c-2.22-1.39-4.38-2.88-6.51-4.4s-4.19-3-6.25-4.61q-2.76-2.1-5.46-4.26c-2.31-1.86-4.6-3.75-6.88-5.64-1.9-1.57-3.78-3.17-5.64-4.78-2-1.77-4.08-3.54-6.08-5.34-2.17-2-4.35-3.92-6.4-6a14.05,14.05,0,0,1-2.66-16c.23-.47.53-.89.79-1.33a1,1,0,0,0,.17-.45s0,0,0,0h0c0-.38.53-.46.53-.86l.34-.47a4.68,4.68,0,0,0,.76-.78c.4,0,.46-.39.65-.62a.56.56,0,0,0,.43-.27.83.83,0,0,1,.72-.36c.31.27.6,0,.9,0a12.7,12.7,0,0,1,3.2,0,14.11,14.11,0,0,1,2.93.66c.11,0,.22.12.27-.07h0c.33.1.46.52.82.54A1.84,1.84,0,0,1,44,36a17.35,17.35,0,0,1,1.77,1c.54.36,1,.8,1.52,1.18a10.92,10.92,0,0,1,2.07,2.56c.67.92,1.28,1.89,2,2.8.37.5.66,1,1,1.55s.88,1.25,1.31,1.88c.67,1,1.33,1.92,2,2.88L57.23,52c-.28.45-.78.64-1.17.95-.19.15-.31.28-.23.53h0a.39.39,0,0,0-.58.08l-.25.25a18.5,18.5,0,0,0-3,3.26,1.24,1.24,0,0,0-.17,1.17,1.42,1.42,0,0,0,2.45.38A18.58,18.58,0,0,1,58,55c.29-.22.55-.56,1-.52,0,.21.12.33.22.47L61,57.5c.33.47.66.93,1,1.4.2.29.4.32.69.09.47-.38,1-.72,1.46-1.08.12-.08.23-.23.49-.08-.67.47-1.29.93-1.93,1.36-.26.17-.29.36-.1.58a11.21,11.21,0,0,1,.73,1.07c.92,1.35,1.86,2.68,2.79,4,.41.6.88,1.17,1.24,1.81.1.18.22.47.57.21,1.22-.92,2.47-1.82,3.68-2.76a5.22,5.22,0,0,1,1.5-1c0,.21-.15.31-.3.41l-4.55,3.34c-.43.31-.45.4-.15.84.49.73,1,1.45,1.5,2.17C70.39,71,71.2,72.18,72,73.35c.25.37.42.85.87,1.07a16.63,16.63,0,0,1-1.34,1.18,12.81,12.81,0,0,0-1.92,2.3A1.37,1.37,0,0,0,70.12,80,1.54,1.54,0,0,0,72,79.37,4.72,4.72,0,0,1,73,78a.57.57,0,0,0,.21-.57h0a.32.32,0,0,0,.48-.09,1.18,1.18,0,0,1,.78-.51,1.69,1.69,0,0,0,.52.93c.67.83,1.23,1.75,1.83,2.63.88,1.29,1.86,2.52,2.65,3.88a.4.4,0,0,0,.35.23,1.35,1.35,0,0,1-.15.26,11.06,11.06,0,0,0-1.41,1.57,1.49,1.49,0,0,0,.12,2.09,1.45,1.45,0,0,0,2-.3A4.56,4.56,0,0,1,81.45,87a1,1,0,0,0,.1.24,32.93,32.93,0,0,1,2,2.83.48.48,0,0,0,.42.2h0a.48.48,0,0,0,.09.6c.36.48.72,1,1.06,1.46C85.84,93.35,86.53,94.37,87.22,95.38ZM39.34,47h0a.28.28,0,0,0-.32.09c-.31.39-.66.75-1,1.16a20.62,20.62,0,0,0-2.23,3.58,1.47,1.47,0,0,0,.76,1.81,1.56,1.56,0,0,0,1.67-.49c.36-.74.81-1.42,1.24-2.12a18.92,18.92,0,0,1,2.42-3A25.16,25.16,0,0,1,44,46.2a1.29,1.29,0,0,0,.23-1.67A1.27,1.27,0,0,0,42.5,44,9.9,9.9,0,0,0,40,46C39.73,46.28,39.37,46.5,39.34,47ZM57.65,72.23a.66.66,0,0,1,.48.36c.15.22.31.43.45.66s.25.24.39,0a8.58,8.58,0,0,1,1-1.63,16.27,16.27,0,0,1,3.47-3.36,1.38,1.38,0,0,0,.47-1.53,1.41,1.41,0,0,0-2.24-.59,17.38,17.38,0,0,0-3.36,3.16,18.81,18.81,0,0,0-1.91,2.84,1.4,1.4,0,0,0,.31,1.74,1.46,1.46,0,0,0,1.64.11c.25-.15.32-.29.12-.55S58,72.66,57.65,72.23Z"/><path class="cls-2" d="M35.16,34.62a.83.83,0,0,0-.72.36.56.56,0,0,1-.43.27,2.64,2.64,0,0,0-1.63-1.5c-1.05-.34-2.76.45-2.61,1.92,0,.37-.14.36-.4.3s-.21-.15-.31-.24a3.12,3.12,0,0,1,.4-1.34,2.57,2.57,0,0,1,1.9-1.28,3.3,3.3,0,0,1,2.1.68c.13.07.28.26.41.06s0-.31-.17-.42a3.25,3.25,0,0,0-2.64-.93,3.11,3.11,0,0,0-2.8,2.75c-.6-.25-1.19-.52-1.79-.74A22.3,22.3,0,0,0,20,33.36c-2.06-.13-4.13,0-6.19-.23a5.11,5.11,0,0,1-3.24-1.25c-1.28-1.28-1.73-3.45.13-4.79A10.59,10.59,0,0,1,12,26.27l1.26-.62c-.37-.23-.74.09-1.14.14a16.25,16.25,0,0,1-6-.16,4.8,4.8,0,0,1-2.71-1.56A4.46,4.46,0,0,1,2.5,21,4.15,4.15,0,0,1,6,17.14c.37-.09.74-.23,1.12-.29a16.49,16.49,0,0,1-3.63-.6,5.15,5.15,0,0,1-3-1.94,3.65,3.65,0,0,1-.35-3A3.14,3.14,0,0,1,3.6,8.91a9.92,9.92,0,0,1,1.19.15c.12,0,.26.09.36-.06s0-.29-.12-.39A5.25,5.25,0,0,1,3.86,6.7,3.15,3.15,0,0,1,4,3.76c.7-1,1.65-1.19,3.09-.78a3.51,3.51,0,0,0-.52,4.16,3.1,3.1,0,0,0,4.15,1.12,2.84,2.84,0,0,0,1.15-3.37,2.42,2.42,0,0,0-1.79-1.53l.09-.53a9.08,9.08,0,0,1,1.31.69c.1.07.22.15.32,0s-.05-.18-.1-.27a2,2,0,0,0-1.44-1A3,3,0,0,1,13.37,0a3.93,3.93,0,0,1,2.22.48,4,4,0,0,1,1.62,2.13,9,9,0,0,1,.49,2.23c.08.75.08,1.5.09,2.32A7.79,7.79,0,0,0,18.29,6a4.25,4.25,0,0,1,5.34-2.43,4.14,4.14,0,0,1,3.1,3.61,13.42,13.42,0,0,1-.22,5.09,9.3,9.3,0,0,0-.29,1.66c-.09,0-.1.07-.1.15l0,0,.06-.2c.44-.54.77-1.16,1.24-1.68a3.09,3.09,0,0,1,4-.86,3.82,3.82,0,0,1,2,3.17,18,18,0,0,1,0,3.67,39,39,0,0,0-.23,7.41,13.16,13.16,0,0,0,2.21,6.45c.35.49.78.92,1.09,1.44a5,5,0,0,1-.89.6C35.41,34.2,35.18,34.34,35.16,34.62Z"/><path class="cls-3" d="M35.16,34.62c0-.28.25-.42.45-.53a5,5,0,0,0,.89-.6,10.45,10.45,0,0,0,1.41-.63,12.66,12.66,0,0,1,3.52-.95c.3.13.63-.08.89,0,.93.26,1.87-.16,2.8.06a.16.16,0,0,0,.19-.13A14.11,14.11,0,0,1,51,33.71a13.88,13.88,0,0,1,3.9,3.38c0,.1-.09.26,0,.29.37.13.3.55.53.75a5.18,5.18,0,0,0,.65.46c-.17.41.1.62.39.82a1,1,0,0,1,.35.39,3.3,3.3,0,0,0,1.07,1.55c.13.21.25.43.54.44-.06.65,0,.8.64,1,.16.05.3.07.25.28-.12.52.12.77.61.86.15,0,.39.13.25.32-.31.42,0,.44.28.55s.33,0,.34.2-.19.26-.33.3-.35.17-.26.36.31.07.46,0,.27-.29.56-.18c-.17.06-.29.13-.25.3s.16.2.3.22l.57.06s0,0,0,0a2.59,2.59,0,0,0,.46,1c.11.12.06.22,0,.35s-.46.35-.57.64a.26.26,0,0,0-.31.22.32.32,0,0,0-.36.28.35.35,0,0,0,.37-.28.24.24,0,0,0,.3-.22c.28,0,.4-.22.59-.35s.43-.25.54.14a.61.61,0,0,0,.53.47,18.58,18.58,0,0,1,1.86,2.45c.21.29.39.6.58.91-.06.2.11.32.19.46s.25.24.21.43c-.08.34.12.44.38.58a1.45,1.45,0,0,1,.78,1.09.59.59,0,0,0,.41.54,1.46,1.46,0,0,1,.78,1c.12.47.13.4.55.7a1.44,1.44,0,0,1,.61,1c0,.29,0,.46.32.56s.23.23.35.32c.46.35.37,1.08,1,1.33a.1.1,0,0,1,0,.08c0,.41.27.59.52.81a.88.88,0,0,1,.22.25,8.22,8.22,0,0,0,.7,1.1c.41.48.47.65.2,1.18h0a5.22,5.22,0,0,0-1.5,1c-1.21.94-2.46,1.84-3.68,2.76-.35.26-.47,0-.57-.21-.36-.64-.83-1.21-1.24-1.81-.93-1.35-1.87-2.68-2.79-4a11.21,11.21,0,0,0-.73-1.07c-.19-.22-.16-.41.1-.58.64-.43,1.26-.89,1.93-1.36-.26-.15-.37,0-.49.08-.49.36-1,.7-1.46,1.08-.29.23-.49.2-.69-.09-.32-.47-.65-.93-1-1.4l-1.76-2.58c-.1-.14-.25-.26-.22-.47s.16-.24.28-.31c.53-.33,1-.67,1.58-1a1.43,1.43,0,0,0,.68-1.79,1.42,1.42,0,0,0-1.86-.66c-.86.36-1.59,1-2.45,1.3l-1.55-2.19c-.68-1-1.34-1.92-2-2.88-.43-.63-.85-1.27-1.31-1.88s-.66-1-1-1.55c-.68-.91-1.29-1.88-2-2.8a10.92,10.92,0,0,0-2.07-2.56c-.51-.38-1-.82-1.52-1.18A17.35,17.35,0,0,0,44,36a1.84,1.84,0,0,0-.73-.27c-.36,0-.49-.44-.82-.54a4,4,0,0,0-1.06-1.6s-.08,0-.12,0c0-.54-.5-.76-.75-1.14a1.85,1.85,0,0,0,.74,1.15,5,5,0,0,0,1.19,1.62c-.05.19-.16.1-.27.07a14.11,14.11,0,0,0-2.93-.66,12.7,12.7,0,0,0-3.2,0C35.76,34.62,35.47,34.89,35.16,34.62Zm19.05,2.52a.63.63,0,0,0-.65.53.87.87,0,0,0,.52.82.83.83,0,0,0,.77-.48A.87.87,0,0,0,54.21,37.14Zm.53,4.44A4.68,4.68,0,0,0,52.6,43.2Z"/><path class="cls-3" d="M87.22,95.38c-.69-1-1.38-2-2.08-3-.34-.5-.7-1-1.06-1.46a.48.48,0,0,1-.09-.6.38.38,0,0,0,.4-.3,1.17,1.17,0,0,0,.81-.59.37.37,0,0,0,.41-.29.4.4,0,0,0,.41-.3,1.28,1.28,0,0,0,.84-.63,1.49,1.49,0,0,0-.85.63.36.36,0,0,0-.4.29.39.39,0,0,0-.41.3,1.19,1.19,0,0,0-.81.59.37.37,0,0,0-.41.29.48.48,0,0,1-.42-.2,32.93,32.93,0,0,0-2-2.83,1,1,0,0,1-.1-.24,1.3,1.3,0,0,1,.25-.35c.61-.43,1.24-.81,1.83-1.25A1.21,1.21,0,0,0,84,84,1.36,1.36,0,0,0,83,83c-.63-.17-1.09.22-1.57.49a15.89,15.89,0,0,1-1.56,1,.4.4,0,0,1-.35-.23c-.79-1.36-1.77-2.59-2.65-3.88-.6-.88-1.16-1.8-1.83-2.63a1.69,1.69,0,0,1-.52-.93.45.45,0,0,1,.06-.12,1.43,1.43,0,0,0,.45-2,1.52,1.52,0,0,0-1.93-.35.75.75,0,0,1-.26,0c-.45-.22-.62-.7-.87-1.07-.76-1.17-1.57-2.31-2.38-3.45-.51-.72-1-1.44-1.5-2.17-.3-.44-.28-.53.15-.84l4.55-3.34c.15-.1.3-.2.3-.41h0c.18.07.35-.24.52,0a12.18,12.18,0,0,1,.73,1c.29.47.39,1.07,1,1.33.1,0,.06.16.08.24a3,3,0,0,0,.57.89c.25.32.51.56.38,1h0a.67.67,0,0,0-.73.6A.64.64,0,0,0,76,69a.63.63,0,0,0,.83-.32c.08-.14.15-.28.31-.15s.28.2.08.39-.13.27.07.3.26.19.14.4a.21.21,0,0,0,0,.31c.24,0,.33-.54.67-.21,1.3,2,2.54,4.06,3.76,6.12q1.68,2.79,3.21,5.67A35.67,35.67,0,0,1,87,85.31a.77.77,0,0,0,.4.84.08.08,0,0,1,0,.08,3.53,3.53,0,0,0,.74,1.92h0a12.67,12.67,0,0,1,1.18,5.21,1.88,1.88,0,0,1-1.13,1.88A1.66,1.66,0,0,1,87.22,95.38Z"/><path class="cls-2" d="M10.09,3.36a2.42,2.42,0,0,1,1.79,1.53,2.84,2.84,0,0,1-1.15,3.37A3.1,3.1,0,0,1,6.58,7.14,3.51,3.51,0,0,1,7.1,3,1.38,1.38,0,0,1,8,3.31a1.07,1.07,0,0,1-.14.16A2.6,2.6,0,0,0,7.06,6,2.26,2.26,0,0,0,9.7,7.68a2,2,0,0,0,1.56-1.44,1.69,1.69,0,0,0-.67-1.9c-.15-.1-.29-.22-.48-.07A2.32,2.32,0,0,1,10.09,3.36Z"/><path class="cls-1" d="M76.33,67.61c.13-.43-.13-.67-.38-1a3,3,0,0,1-.57-.89c0-.08,0-.2-.08-.24-.58-.26-.68-.86-1-1.33a12.18,12.18,0,0,0-.73-1c-.17-.22-.34.09-.52,0,.27-.53.21-.7-.2-1.18a8.22,8.22,0,0,1-.7-1.1.88.88,0,0,0-.22-.25c-.25-.22-.55-.4-.52-.81a.1.1,0,0,0,0-.08c-.58-.25-.49-1-1-1.33-.12-.09-.2-.26-.35-.32s-.31-.27-.32-.56a1.44,1.44,0,0,0-.61-1c-.42-.3-.43-.23-.55-.7a1.46,1.46,0,0,0-.78-1,.59.59,0,0,1-.41-.54,1.45,1.45,0,0,0-.78-1.09c-.26-.14-.46-.24-.38-.58,0-.19-.13-.29-.21-.43s-.25-.26-.19-.46c.45.22.6.69.88,1.06C68,54.33,69.06,56,70.22,57.57s2,3,3,4.49c.54.79,1,1.61,1.62,2.37.33.43.57.94.86,1.39.75,1.18,1.51,2.35,2.26,3.52.07.11.2.19.18.35-.34-.33-.43.17-.67.21a.21.21,0,0,1,0-.31c.12-.21.18-.35-.14-.4s-.18-.21-.07-.3,0-.31-.08-.39-.23,0-.31.15A.63.63,0,0,1,76,69a.64.64,0,0,1-.44-.76.67.67,0,0,1,.73-.6l0,.17s-.11,0-.1,0l.1,0,.45.15C76.59,67.67,76.59,67.67,76.33,67.61Zm-.42.92c.15.43.38.29.62.1l0,0,0,0c-.21,0-.43.06-.61-.09l0,0Zm.63-.46c-.18-.12-.33,0-.45.1a.19.19,0,0,0,0,.24.15.15,0,0,0,.2,0,.38.38,0,0,0,.07-.08C76.05,68,76.52,68.23,76.54,68.07Zm-.69.06s0,0,0,.07a.19.19,0,0,0,0,.07s0,0,0-.06S75.85,68.16,75.85,68.13Z"/><path class="cls-2" d="M29.37,36c.26.06.43.07.4-.3-.15-1.47,1.56-2.26,2.61-1.92A2.64,2.64,0,0,1,34,35.25c-.19.23-.25.61-.65.62,0-.16-.06-.32-.11-.47a1.48,1.48,0,0,0-1.53-1,1.23,1.23,0,0,0-1.11.85,1,1,0,0,0,.21,1,.93.93,0,0,0,1.05.27.55.55,0,0,0,.38-.54c0-.28-.23-.21-.38-.26s-.43-.18-.39-.4.28-.31.52-.29a.65.65,0,0,1,.35.15c.53.4.4.89.25,1.39l-.34.47c-.4,0-.73.26-1.12.27Z"/><path class="cls-2" d="M10.11,4.27c.19-.15.33,0,.48.07a1.69,1.69,0,0,1,.67,1.9A2,2,0,0,1,9.7,7.68,2.26,2.26,0,0,1,7.06,6a2.6,2.6,0,0,1,.75-2.54A1.07,1.07,0,0,0,8,3.31l.16,0a.19.19,0,0,0,.2.13l.13.06a.51.51,0,0,1-.22.4,1.71,1.71,0,0,0-.47,1.9A1.57,1.57,0,0,0,9.26,7a1.46,1.46,0,0,0,1.25-.69A1.11,1.11,0,0,0,10.36,5a.63.63,0,0,1-.25-.55Z"/><path class="cls-2" d="M28.26,35.25a3.11,3.11,0,0,1,2.8-2.75,3.25,3.25,0,0,1,2.64.93c.13.11.26.28.17.42s-.28,0-.41-.06a3.3,3.3,0,0,0-2.1-.68,2.57,2.57,0,0,0-1.9,1.28,3.12,3.12,0,0,0-.4,1.34C28.74,35.66,28.54,35.39,28.26,35.25Z"/><path class="cls-2" d="M10.11,4.44a.63.63,0,0,0,.25.55,1.11,1.11,0,0,1,.15,1.32A1.46,1.46,0,0,1,9.26,7,1.57,1.57,0,0,1,7.75,5.85,1.71,1.71,0,0,1,8.22,4a.51.51,0,0,0,.22-.4,1.35,1.35,0,0,1,.72.61c0,.11-.14.14-.22.2a1.12,1.12,0,0,0-.37,1.41,1,1,0,0,0,1.15.51.54.54,0,0,0,.49-.53c0-.29-.19-.39-.49-.33a.33.33,0,0,1-.31-.21c-.08-.14,0-.25.11-.35s.17-.11.2-.22C9.93,4.74,10,4.53,10.11,4.44Z"/><path class="cls-1" d="M61.88,46.08,61.31,46c-.14,0-.26-.06-.3-.22s.08-.24.25-.3c-.29-.11-.39.12-.56.18s-.36.2-.46,0,0-.3.26-.36.34-.08.33-.3-.22-.14-.34-.2-.59-.13-.28-.55c.14-.19-.1-.29-.25-.32-.49-.09-.73-.34-.61-.86,0-.21-.09-.23-.25-.28-.61-.2-.7-.35-.64-1l0-.2Q60.28,43.77,61.88,46.08Z"/><path class="cls-2" d="M9.72,4.64c0,.11-.13.15-.2.22s-.19.21-.11.35a.33.33,0,0,0,.31.21c.3-.06.49,0,.49.33a.54.54,0,0,1-.49.53,1,1,0,0,1-1.15-.51,1.12,1.12,0,0,1,.37-1.41c.08-.06.18-.09.22-.2.2.06.31.24.47.36a.08.08,0,0,0,0,0Z"/><path class="cls-1" d="M57.92,41.35a3.3,3.3,0,0,1-1.07-1.55,1,1,0,0,0-.35-.39c-.29-.2-.56-.41-.39-.82h.08c.72.91,1.46,1.8,2.13,2.75C58.19,41.33,58.05,41.24,57.92,41.35Z"/><path class="cls-1" d="M61.8,48.07c.11-.29.42-.39.57-.64s.13-.23,0-.35a2.59,2.59,0,0,1-.46-1,18.38,18.38,0,0,1,1.13,1.5c.08.1.12.26.22.32s.24.2.18.39a.61.61,0,0,1-.53-.47c-.11-.39-.31-.29-.54-.14s-.31.37-.59.35Z"/><path class="cls-2" d="M10.27,2.3a2,2,0,0,1,1.44,1c0,.09.18.17.1.27s-.22,0-.32,0a9.08,9.08,0,0,0-1.31-.69Z"/><path class="cls-1" d="M45.31,31.83a.16.16,0,0,1-.19.13c-.93-.22-1.87.2-2.8-.06-.26-.07-.59.14-.89,0A11,11,0,0,1,45.31,31.83Z"/><path class="cls-4" d="M56.19,38.58h-.08a5.18,5.18,0,0,1-.65-.46c-.23-.2-.16-.62-.53-.75-.09,0,0-.19,0-.29A7.17,7.17,0,0,1,56.19,38.58Z"/><path class="cls-2" d="M31.14,37.39c.39,0,.72-.27,1.12-.27,0,.4-.5.48-.53.86h0s0,0,0,0l-.12-.09a.1.1,0,0,0,0-.05.09.09,0,0,1,0,0,.12.12,0,0,0-.05,0l0,0-.06-.06,0,0-.06-.07Z"/><path class="cls-1" d="M88.2,88.15h0a3.53,3.53,0,0,1-.74-1.92A8.41,8.41,0,0,1,88.2,88.15Z"/><path class="cls-5" d="M57.92,41.35c.13-.11.27,0,.4,0a.36.36,0,0,1,.19.26c0,.07,0,.14,0,.2C58.17,41.78,58.05,41.56,57.92,41.35Z"/><path class="cls-1" d="M87.41,86.15a.77.77,0,0,1-.4-.84A2.33,2.33,0,0,1,87.41,86.15Z"/><path class="cls-4" d="M8.31,3.49a.19.19,0,0,1-.2-.13C8.23,3.33,8.28,3.4,8.31,3.49Z"/><path class="cls-4" d="M9.67,4.56a.08.08,0,0,1,0,0l0,0Z"/><path class="cls-4" d="M31.41,37.7a.12.12,0,0,1,.05,0C31.4,37.76,31.39,37.75,31.41,37.7Z"/><path class="cls-4" d="M31.32,37.6l.06.06Q31.29,37.68,31.32,37.6Z"/><path class="cls-4" d="M31.24,37.5l.06.07C31.25,37.57,31.23,37.54,31.24,37.5Z"/><path class="cls-4" d="M31.49,37.8a.1.1,0,0,1,0,.05C31.47,37.87,31.46,37.85,31.49,37.8Z"/><path class="cls-5" d="M57.23,52c.86-.34,1.59-.94,2.45-1.3a1.42,1.42,0,0,1,1.86.66,1.43,1.43,0,0,1-.68,1.79c-.54.3-1,.64-1.58,1-.12.07-.26.15-.28.31-.44,0-.7.3-1,.52a18.58,18.58,0,0,0-3.73,3.68,1.42,1.42,0,0,1-2.45-.38A1.24,1.24,0,0,1,52,57.1a18.5,18.5,0,0,1,3-3.26l.25-.25a.39.39,0,0,1,.58-.08.26.26,0,0,0,.22.3l.08.1c0,.07,0,.14.08.15l0,0c0-.09-.06-.11-.12-.13l-.07-.1a.27.27,0,0,0-.22-.31c-.08-.25,0-.38.23-.53C56.45,52.66,57,52.47,57.23,52Z"/><path class="cls-5" d="M39.34,47c0-.45.39-.67.67-.94a9.9,9.9,0,0,1,2.49-2,1.27,1.27,0,0,1,1.71.54A1.29,1.29,0,0,1,44,46.2,25.16,25.16,0,0,0,41.92,48a18.92,18.92,0,0,0-2.42,3c-.43.7-.88,1.38-1.24,2.12a1.56,1.56,0,0,1-1.67.49,1.47,1.47,0,0,1-.76-1.81,20.62,20.62,0,0,1,2.23-3.58c.3-.41.65-.77,1-1.16a.28.28,0,0,1,.32-.09c0,.06,0,.14.08.15a0,0,0,0,0,0,0C39.48,47,39.4,47,39.34,47Zm.59.82a.38.38,0,0,0-.3-.41l0,0,0,0a.38.38,0,0,0,.3.41c0,.06,0,.14.08.15l0,0C40.07,47.8,40,47.79,39.93,47.77Zm.29.4a.38.38,0,0,0,.3.41c0,.07,0,.14.08.15l0,0c0-.1-.06-.11-.12-.13a.38.38,0,0,0-.29-.41l0-.12,0,0Zm.57.69h0v0l.05,0Z"/><path class="cls-5" d="M57.65,72.23c.3.43.55.82.84,1.18s.13.4-.12.55a1.46,1.46,0,0,1-1.64-.11,1.4,1.4,0,0,1-.31-1.74,18.81,18.81,0,0,1,1.91-2.84,17.38,17.38,0,0,1,3.36-3.16,1.41,1.41,0,0,1,2.24.59,1.38,1.38,0,0,1-.47,1.53A16.27,16.27,0,0,0,60,71.59a8.58,8.58,0,0,0-1,1.63c-.14.27-.24.26-.39,0s-.3-.44-.45-.66A.66.66,0,0,0,57.65,72.23Z"/><path class="cls-5" d="M72.83,74.42a.75.75,0,0,0,.26,0,1.52,1.52,0,0,1,1.93.35,1.43,1.43,0,0,1-.45,2,.45.45,0,0,0-.06.12,1.18,1.18,0,0,0-.78.51.32.32,0,0,1-.48.09l0,0,0,0A.57.57,0,0,1,73,78,4.72,4.72,0,0,0,72,79.37a1.54,1.54,0,0,1-1.83.61,1.37,1.37,0,0,1-.55-2.08,12.81,12.81,0,0,1,1.92-2.3A16.63,16.63,0,0,0,72.83,74.42Zm-.26.74a.67.67,0,0,0-.57.44A.9.9,0,0,0,72.57,75.16Z"/><path class="cls-5" d="M79.86,84.52a15.89,15.89,0,0,0,1.56-1c.48-.27.94-.66,1.57-.49A1.36,1.36,0,0,1,84,84a1.21,1.21,0,0,1-.47,1.44c-.59.44-1.22.82-1.83,1.25a1.3,1.3,0,0,0-.25.35,4.56,4.56,0,0,0-1.06,1.13,1.45,1.45,0,0,1-2,.3,1.49,1.49,0,0,1-.12-2.09,11.06,11.06,0,0,1,1.41-1.57A1.35,1.35,0,0,0,79.86,84.52Zm.26,2.37c0,.07,0,.14.08.15l0,0c0-.1-.06-.11-.12-.13l0-.12,0,0Zm-.44-.61c0-.06,0-.14-.09-.15a0,0,0,0,0,0,0c0,.09,0,.1.11.12l.09.08,0,0Zm-.48-.83c0,.26,0,.41.23.51C79.44,85.75,79.34,85.64,79.2,85.45Zm1.3,2s0,0,0-.07,0,0-.06,0,0,0,0,.07S80.48,87.44,80.5,87.46Zm-.57-.93-.07,0s0,0,0,.07l.09,0Z"/><path class="cls-2" d="M32.6,36.65c.15-.5.28-1-.25-1.39a.65.65,0,0,0-.35-.15c-.24,0-.48,0-.52.29s.18.33.39.4.38,0,.38.26a.55.55,0,0,1-.38.54.93.93,0,0,1-1.05-.27,1,1,0,0,1-.21-1,1.23,1.23,0,0,1,1.11-.85,1.48,1.48,0,0,1,1.53,1c0,.15.07.31.11.47A4.68,4.68,0,0,1,32.6,36.65Z"/><path class="cls-6" d="M26.22,13.89l-.06.2,0,0c0-.08,0-.15.1-.15Z"/><path class="cls-1" d="M54.21,37.14a.87.87,0,0,1,.64.87.83.83,0,0,1-.77.48.87.87,0,0,1-.52-.82A.63.63,0,0,1,54.21,37.14ZM54,38.22c.31.11.57.06.67-.29s-.09-.34-.24-.43-.25,0-.34.12a.19.19,0,0,0,0,.28c.17.16.25,0,.37-.09s0,0,.07,0C54.45,38.16,54.18,38.13,54,38.22Z"/><path class="cls-1" d="M54.74,41.58,52.6,43.2A4.68,4.68,0,0,1,54.74,41.58Z"/><path class="cls-1" d="M41.28,33.51s.1,0,.12,0a4,4,0,0,1,1.06,1.6h0a5,5,0,0,1-1.19-1.62Z"/><path class="cls-1" d="M41.27,33.52a1.85,1.85,0,0,1-.74-1.15c.25.38.74.6.75,1.14Z"/><path class="cls-1" d="M61.5,48.29a.35.35,0,0,1-.37.28.32.32,0,0,1,.36-.28Z"/><path class="cls-1" d="M61.49,48.29a.26.26,0,0,1,.31-.22h0a.24.24,0,0,1-.3.22Z"/><path class="cls-1" d="M86,88.81a1.49,1.49,0,0,1,.85-.63,1.28,1.28,0,0,1-.84.63Z"/><path class="cls-1" d="M85.2,89.4a1.17,1.17,0,0,1-.81.59h0a1.19,1.19,0,0,1,.81-.59Z"/><path class="cls-1" d="M86,88.81a.4.4,0,0,1-.41.3h0a.36.36,0,0,1,.4-.29Z"/><path class="cls-1" d="M85.2,89.4a.39.39,0,0,1,.41-.3h0a.37.37,0,0,1-.41.29Z"/><path class="cls-1" d="M84.39,90a.38.38,0,0,1-.4.3h0a.37.37,0,0,1,.41-.29Z"/><path class="cls-5" d="M76.54,68.07c0,.16-.49,0-.15.29a.38.38,0,0,1-.07.08.15.15,0,0,1-.2,0,.19.19,0,0,1,0-.24C76.21,68,76.36,68,76.54,68.07Z"/><path class="cls-5" d="M76.53,68.63c-.24.19-.47.33-.62-.1h0c.18.15.4.08.61.09Z"/><path class="cls-3" d="M76.33,67.61c.26.06.26.06.42.32l-.45-.15h0l0-.17Z"/><path class="cls-5" d="M75.85,68.13s0,.06,0,.08,0,0,0,.06a.19.19,0,0,1,0-.07S75.83,68.16,75.85,68.13Z"/><path class="cls-3" d="M76.3,67.78l-.1,0c0-.1.07,0,.1,0Z"/><path class="cls-5" d="M76.53,68.62l0,0,0,0Z"/><path class="cls-5" d="M75.91,68.53l0,0,0,0Z"/><path class="cls-1" d="M56,53.81a.26.26,0,0,1-.22-.3h0a.27.27,0,0,1,.22.31Z"/><path class="cls-1" d="M56.12,53.91c.06,0,.14,0,.12.13l0,0c-.09,0-.08-.08-.08-.15Z"/><path class="cls-1" d="M56.12,53.91l-.08-.1h0l.07.1Z"/><path class="cls-1" d="M40.52,48.58a.38.38,0,0,1-.3-.41h0a.38.38,0,0,1,.29.41Z"/><path class="cls-1" d="M39.63,47.36a.38.38,0,0,1,.3.41h0a.38.38,0,0,1-.3-.41Z"/><path class="cls-1" d="M39.93,47.77c.06,0,.14,0,.12.12l0,0c-.09,0-.08-.09-.08-.15Z"/><path class="cls-1" d="M40.52,48.58c.06,0,.14,0,.12.13l0,0c-.09,0-.08-.08-.08-.15Z"/><path class="cls-1" d="M39.34,47c.06,0,.14,0,.11.13a0,0,0,0,1,0,0c-.1,0-.08-.09-.08-.15Z"/><path class="cls-1" d="M40.79,48.86l0,0-.05,0v0Z"/><path class="cls-1" d="M40.22,48.17l0-.1,0,0,0,.12Z"/><path class="cls-1" d="M39.63,47.36l0,0,0,0Z"/><path class="cls-1" d="M72.57,75.16a.9.9,0,0,1-.57.44A.67.67,0,0,1,72.57,75.16Z"/><path class="cls-1" d="M73.25,77.46l0,0,0,0Z"/><path class="cls-1" d="M79.2,85.45c.14.19.24.3.23.51C79.2,85.86,79.19,85.71,79.2,85.45Z"/><path class="cls-1" d="M80.5,87.46s-.06,0-.06,0,0,0,0-.07.06,0,.06,0S80.52,87.43,80.5,87.46Z"/><path class="cls-1" d="M79.93,86.53l0,.07-.09,0s0-.06,0-.07Z"/><path class="cls-1" d="M79.67,86.28c-.06,0-.13,0-.11-.12a0,0,0,0,1,0,0c.1,0,.09.09.09.15Z"/><path class="cls-1" d="M80.12,86.89c.06,0,.14,0,.12.13l0,0c-.09,0-.08-.08-.08-.15Z"/><path class="cls-1" d="M80.12,86.89l-.05-.1,0,0,0,.12Z"/><path class="cls-1" d="M79.68,86.28l.11,0,0,0-.09-.08Z"/><path class="cls-5" d="M54,38.22c.21-.09.48-.06.54-.36,0,0,0,0-.07,0s-.2.25-.37.09a.19.19,0,0,1,0-.28c.09-.1.21-.2.34-.12s.3.22.24.43S54.28,38.33,54,38.22Z"/></g></g></svg>