<svg id="instagram" xmlns="http://www.w3.org/2000/svg" width="19.744" height="19.744" viewBox="0 0 19.744 19.744">
  <circle id="Elipse_17" data-name="Elipse 17" cx="9.872" cy="9.872" r="9.872" fill="#81d3b9"/>
  <path id="Caminho_22" data-name="Caminho 22" d="M130.845,125.645a14.592,14.592,0,0,1-3.2.023c-1.518-.117-3.736-.817-4.553.584-1.313,2.243-.665,5.114-.359,7.655l4.562,4.561a8.668,8.668,0,0,0,8.188-8.187Z" transform="translate(-115.75 -118.737)" fill="#81d3b9"/>
  <g id="Grupo_140" data-name="Grupo 140" transform="translate(4.91 4.91)">
    <path id="Caminho_23" data-name="Caminho 23" d="M116.435,109.468h-4.011a2.959,2.959,0,0,0-2.956,2.956v4.011a2.959,2.959,0,0,0,2.956,2.956h4.011a2.96,2.96,0,0,0,2.956-2.956v-4.011a2.959,2.959,0,0,0-2.956-2.956Zm1.958,6.967a1.958,1.958,0,0,1-1.958,1.958h-4.011a1.958,1.958,0,0,1-1.958-1.958v-4.011a1.958,1.958,0,0,1,1.958-1.958h4.011a1.958,1.958,0,0,1,1.958,1.958Z" transform="translate(-109.468 -109.468)" fill="#844282"/>
    <path id="Caminho_24" data-name="Caminho 24" d="M182.768,180.2a2.566,2.566,0,1,0,2.566,2.566,2.569,2.569,0,0,0-2.566-2.566Zm0,4.135a1.568,1.568,0,1,1,1.568-1.568,1.568,1.568,0,0,1-1.568,1.568Z" transform="translate(-177.807 -177.807)" fill="#844282"/>
  </g>
</svg>
