<svg xmlns="http://www.w3.org/2000/svg" width="19.744" height="19.744" viewBox="0 0 19.744 19.744">
  <g id="twitter-logo-button" transform="translate(-226 5)">
    <g id="Grupo_139" data-name="Grupo 139" transform="translate(226 -5)">
      <path id="Caminho_21" data-name="Caminho 21" d="M9.872,0a9.872,9.872,0,1,0,9.872,9.872A9.883,9.883,0,0,0,9.872,0Zm4.4,7.612c0,.1.007.2.007.3a6.463,6.463,0,0,1-9.948,5.444A4.588,4.588,0,0,0,7.7,12.41a2.274,2.274,0,0,1-2.123-1.578A2.281,2.281,0,0,0,6.6,10.794,2.273,2.273,0,0,1,4.779,8.566c0-.01,0-.019,0-.029a2.263,2.263,0,0,0,1.029.284,2.276,2.276,0,0,1-.7-3.034A6.452,6.452,0,0,0,9.788,8.162,2.274,2.274,0,0,1,13.66,6.089,4.535,4.535,0,0,0,15.1,5.538a2.282,2.282,0,0,1-1,1.257,4.517,4.517,0,0,0,1.305-.357A4.571,4.571,0,0,1,14.276,7.612Z" fill="#81d3b9"/>
    </g>
  </g>
</svg>
