<svg xmlns="http://www.w3.org/2000/svg" width="186.769" height="187.551" viewBox="0 0 186.769 187.551">
  <path id="user_1_" data-name="user(1)" d="M186.769,93.775C186.769,42.068,144.877,0,93.385,0S0,42.068,0,93.775a93.5,93.5,0,0,0,15.682,51.945l-.006.066.644.947c.56.822,1.164,1.6,1.749,2.4.237.325.47.653.713.978.741.988,1.5,1.957,2.279,2.91.224.275.451.547.679.819A93.615,93.615,0,0,0,33.547,165.7c.258.216.514.434.775.65.928.76,1.865,1.5,2.82,2.226.386.294.778.578,1.167.866.909.669,1.818,1.332,2.752,1.966.5.341,1.015.66,1.519.991,1.295.844,2.6,1.66,3.935,2.435.928.544,1.858,1.085,2.808,1.6.573.309,1.158.6,1.737.894q1.513.778,3.057,1.5.78.361,1.563.71,1.788.8,3.617,1.516c.377.15.75.3,1.13.45A92.2,92.2,0,0,0,70.7,184.744c.143.038.289.066.433.1q2.325.572,4.7,1.025c.42.081.84.153,1.261.228q1.98.352,3.984.619c.51.069,1.018.134,1.528.2,1.3.15,2.618.269,3.938.366.492.038.981.084,1.472.113,1.777.094,3.564.159,5.366.159s3.589-.066,5.366-.166c.492-.028.981-.078,1.472-.113,1.32-.1,2.633-.213,3.938-.366.511-.059,1.021-.128,1.528-.2q2.008-.267,3.984-.619c.42-.075.84-.147,1.261-.228q2.372-.455,4.7-1.025c.143-.034.289-.066.433-.1a92.205,92.205,0,0,0,10.279-3.238c.38-.144.756-.3,1.136-.45q1.826-.722,3.614-1.513c.523-.231,1.046-.469,1.563-.71q1.546-.722,3.057-1.5c.582-.3,1.164-.588,1.737-.894.949-.513,1.877-1.053,2.808-1.6q2-1.168,3.935-2.435c.507-.331,1.021-.65,1.519-.991.931-.635,1.843-1.3,2.752-1.966.389-.288.781-.572,1.167-.866q1.429-1.083,2.82-2.226c.261-.216.517-.435.775-.65a93.87,93.87,0,0,0,11.81-11.863c.227-.272.451-.541.672-.816.775-.953,1.538-1.922,2.279-2.91.243-.322.473-.65.713-.978.585-.8,1.189-1.579,1.749-2.4l.644-.947-.006-.066A93.482,93.482,0,0,0,186.769,93.775Zm-6.226,0a87.251,87.251,0,0,1-11.178,42.805,42.454,42.454,0,0,0-38.627-30.2v-.1H110.085a1.141,1.141,0,0,1-1.136-1.141v-2.016a1.246,1.246,0,0,1,.859-1.1c20.043-7.568,32.545-38.961,29.924-60.917a46.731,46.731,0,0,0-15.2-29.055A87.645,87.645,0,0,1,180.543,93.775Zm-17,51.858c-.252.341-.5.678-.76,1.016-.694.916-1.395,1.825-2.123,2.713-.075.091-.153.178-.227.269a88.345,88.345,0,0,1-8.128,8.574c-.171.159-.342.322-.517.478-.862.785-1.746,1.547-2.64,2.3-.28.234-.563.466-.847.7-.868.71-1.743,1.407-2.637,2.082-.3.228-.613.444-.918.669-.514.378-1.033.744-1.556,1.11V131.286H130.738V112.627a36.287,36.287,0,0,1,33.9,31.459C164.276,144.6,163.918,145.124,163.541,145.633Zm-29.335,25.441c-.551.294-1.111.578-1.672.863q-1.41.713-2.842,1.375c-.467.216-.931.431-1.4.638q-1.8.788-3.63,1.5c-.252.1-.5.2-.75.3a86.6,86.6,0,0,1-9.535,2.97c-.233.059-.47.106-.7.163-1.342.322-2.693.616-4.053.872-.4.078-.809.147-1.217.219q-1.812.319-3.642.556c-.47.063-.94.128-1.413.181-1.208.141-2.425.244-3.642.334-.451.031-.9.078-1.354.1-1.653.1-3.306.156-4.968.156s-3.315-.056-4.965-.15c-.454-.025-.9-.072-1.354-.1-1.217-.091-2.434-.194-3.642-.334-.473-.053-.943-.119-1.413-.181q-1.83-.244-3.642-.556c-.4-.072-.812-.141-1.217-.219q-2.04-.389-4.056-.875c-.233-.056-.467-.106-.7-.163a87.334,87.334,0,0,1-9.538-2.97c-.252-.094-.5-.2-.75-.3q-1.83-.708-3.626-1.5c-.47-.206-.937-.422-1.4-.638q-1.433-.661-2.842-1.375c-.56-.284-1.121-.566-1.672-.863-.806-.428-1.6-.885-2.394-1.338-.121-.072-.246-.141-.367-.213v-31.99h87.159v31.987c-.121.072-.243.141-.367.213C135.806,170.193,135.012,170.646,134.206,171.074Zm-93.1-7.314c-.893-.675-1.768-1.372-2.633-2.079-.286-.231-.57-.466-.853-.7-.893-.747-1.774-1.51-2.633-2.294-.177-.159-.349-.325-.523-.485a87.9,87.9,0,0,1-8.124-8.571c-.075-.091-.153-.178-.227-.269-.728-.888-1.429-1.8-2.123-2.713-.255-.338-.511-.675-.76-1.016-.374-.51-.732-1.028-1.1-1.547a36.275,36.275,0,0,1,33.9-31.459v18.658H43.579v34.253c-.52-.366-1.043-.735-1.556-1.11C41.718,164.2,41.41,163.988,41.108,163.76ZM79.349,96.248c-14.885-5.53-26.431-31.074-26.431-49.36,0-.4.047-.791.059-1.188l2.279-2.823c5.139-6.139,13.914-7.9,21.827-4.376a24.57,24.57,0,0,0,10.076,2.135,24.752,24.752,0,0,0,21.877-13.079,52.054,52.054,0,0,1,24.725,17.186c.912,19.068-10.254,45.428-26.141,51.426a7.422,7.422,0,0,0-4.9,6.952v2.016a7.39,7.39,0,0,0,7.362,7.393h1.977v18.755H74.708V112.531h1.977a7.39,7.39,0,0,0,7.362-7.393v-1.985A7.348,7.348,0,0,0,79.349,96.248Zm14.16-89.99h.1a41.114,41.114,0,0,1,4.451.259,40.66,40.66,0,0,1,33.469,26.848A60.016,60.016,0,0,0,108.2,20.778l-2.677-.738-1.037,2.582A18.644,18.644,0,0,1,79.6,32.787a24.906,24.906,0,0,0-24.955,2.279A40.551,40.551,0,0,1,93.509,6.258Zm31,125.028h-6.226V112.531h6.226Zm-56.031,0H62.256V112.531h6.226ZM62.2,12.066c-.6.544-1.22,1.057-1.8,1.635A46.673,46.673,0,0,0,46.692,46.888c0,20.721,13.043,48.741,30.5,55.221a1.1,1.1,0,0,1,.632,1.044v1.985a1.141,1.141,0,0,1-1.136,1.141H56.031v.1a42.454,42.454,0,0,0-38.627,30.2A87.6,87.6,0,0,1,62.2,12.066Z" fill="#fff"/>
</svg>
